<?xml version="1.0" encoding="UTF-8" standalone="no"?>
<svg
   xmlns:dc="http://purl.org/dc/elements/1.1/"
   xmlns:cc="http://creativecommons.org/ns#"
   xmlns:rdf="http://www.w3.org/1999/02/22-rdf-syntax-ns#"
   xmlns:svg="http://www.w3.org/2000/svg"
   xmlns="http://www.w3.org/2000/svg"
   version="1.1"
   id="svg2"
   viewBox="0 0 3517.4687 571.44218"
   height="161.27368mm"
   width="992.70782mm">
  <defs
     id="defs4" />
  <metadata
     id="metadata7">
    <rdf:RDF>
      <cc:Work
         rdf:about="">
        <dc:format>image/svg+xml</dc:format>
        <dc:type
           rdf:resource="http://purl.org/dc/dcmitype/StillImage" />
        <dc:title></dc:title>
      </cc:Work>
    </rdf:RDF>
  </metadata>
  <g
     transform="translate(3608.4286,1044.8167)"
     id="layer1">
    <path
       id="path4217"
       d="m -1588.0786,-473.51838 c -7.0236,-0.4387 -15.7532,-1.8083 -22.65,-3.5537 -28.2841,-7.1581 -51.0197,-25.0178 -63.8249,-50.1372 -6.4416,-12.6363 -10.0782,-25.0089 -11.9353,-40.6073 -0.6578,-5.525 -0.9121,-19.3271 -0.4644,-25.2 0.928,-12.1713 0.3373,-8.9916 19.7003,-106.05 13.3741,-67.03852 31.3888,-157.36881 32.592,-163.42491 l 0.9388,-4.725 28.2967,0 c 23.0418,0 28.2968,0.073 28.2968,0.3906 0,0.2149 -1.358,7.1336 -3.0176,15.375 -4.1862,20.7869 -33.2911,165.75981 -40.1691,200.08431 -7.5334,37.5952 -8.5248,44.5248 -8.5415,59.7 -0.01,7.1373 0.1011,9.7451 0.5261,12.6 1.7924,12.0405 5.5034,21.7843 11.5223,30.2534 2.2473,3.1622 8.5391,9.5188 11.7666,11.8877 15.9735,11.7246 39.6023,15.9937 63.8662,11.539 8.6747,-1.5926 18.4181,-4.5638 26.075,-7.9515 19.1779,-8.485 35.0318,-21.9397 46.9898,-39.8786 9.4418,-14.1642 16.7273,-31.816 21.0495,-51 0.4275,-1.8975 3.6598,-17.9625 7.1828,-35.7 3.5231,-17.7375 8.1762,-41.16 10.3404,-52.05 2.1641,-10.89 6.0266,-30.32995 8.5833,-43.19995 8.1022,-40.78396 12.9204,-65.02826 17.6481,-88.79996 l 4.594,-23.1 28.6921,-0.076 c 26.7204,-0.071 28.692,-0.042 28.692,0.4283 0,0.4191 -16.9159,85.68244 -43.9444,221.49811 -2.8732,14.4375 -9.4914,47.715 -14.7072,73.95 -5.2157,26.235 -11.518,57.9263 -14.0049,70.425 l -4.5218,22.725 -27.9577,0 -27.9577,0 3.5313,-19.425 c 1.9422,-10.6837 3.6133,-19.8713 3.7136,-20.4167 0.1642,-0.8935 -0.2885,-0.5219 -4.5692,3.75 -18.3723,18.3347 -40.6969,30.5249 -66.9022,36.5315 -8.8619,2.0312 -18.9056,3.4269 -29.1798,4.0549 -4.4915,0.2745 -16.5268,0.336 -20.25,0.1035 z m 936.60003,0.014 c -34.2504,-2.2129 -61.2632,-12.2378 -82.8052,-30.7303 -22.3962,-19.2258 -36.8744,-47.2166 -41.8099,-80.8316 -3.489,-23.7628 -2.1981,-56.6906 3.4226,-87.3 9.8678,-53.73902 28.129,-97.65237 54.3302,-130.64991 6.6447,-8.3683 15.2694,-17.58 22.5688,-24.105 31.43079,-28.096 70.40586,-43.2993 114.1935,-44.5443 8.8317,-0.2511 19.1094,0.028 25.5,0.6924 38.2062,3.9724 66.8349,20.5893 91.0824,52.8669 1.6362,2.1781 3.0345,4.1356 3.1071,4.35 0.0783,0.2312 -8.4432,7.6258 -20.9289,18.1616 -16.5624,13.97592 -21.1248,17.68217 -21.3606,17.35262 -0.165,-0.23047 -1.4049,-2.01772 -2.7552,-3.97166 -5.7255,-8.28489 -14.2953,-17.78596 -20.4948,-22.72196 -5.9562,-4.7422 -13.938,-9.2585 -20.5773,-11.643 -17.4099,-6.2527 -42.1569,-6.5794 -62.55138,-0.8259 -23.17884,6.5391 -44.03811,20.4502 -60.7107,40.48825 -19.0296,22.87087 -33.74242,55.99186 -41.97812,94.49996 -7.4025,34.6122 -9.8204,63.6554 -7.0808,85.0509 2.7879,21.7724 10.8199,39.1159 24.0357,51.9004 11.64193,11.2621 26.10058,18.0525 44.50315,20.9006 5.02566,0.7778 17.3727,1.0758 23.75865,0.5734 19.9902,-1.5727 36.6741,-7.4166 53.4801,-18.7329 8.0517,-5.4216 14.6328,-10.9428 23.8038,-19.9698 5.3307,-5.2473 6.2913,-6.0728 6.636,-5.7039 0.2217,0.2372 7.1916,8.7338 15.4884,18.8813 8.2968,10.1475 15.6216,19.0971 16.2774,19.888 l 1.1928,1.438 -3.564,3.3974 c -31.2426,29.7846 -67.3092,46.526 -109.3137,50.7416 -4.43874,0.4455 -23.22615,0.8198 -27.45,0.5469 z m -2956.95003,-4.4017 c 0,-0.1205 8.0023,-40.0107 26.1013,-130.1103 8.2697,-41.1675 18.2745,-90.9825 22.2329,-110.7 3.9584,-19.71745 10.5584,-52.58995 14.6667,-73.04995 44.486,-221.54927 50.6991,-252.52797 50.6991,-252.78657 0,-0.1512 230.9949,-0.2634 542.1,-0.2634 344.7148,0 542.1,0.1044 542.1,0.2869 0,0.1578 -0.3999,2.2165 -0.8887,4.575 -0.4888,2.3584 -2.3867,11.6456 -4.2177,20.6381 -4.2105,20.67931 -4.1306,20.28711 -17.2097,84.45001 -6.0205,29.535 -13.4596,66.0525 -16.5314,81.15 -3.0718,15.0975 -5.6544,27.6862 -5.739,27.975 -0.1463,0.4988 3.0238,0.525 63.6106,0.525 l 63.7645,0 0.158,-0.675 c 0.1627,-0.6948 10.7773,-52.7076 11.2497,-55.125 0.1451,-0.7425 3.7904,-18.63 8.1005,-39.75 4.3102,-21.12 11.264,-55.2075 15.4528,-75.75 4.1889,-20.54251 8.1189,-39.81381 8.7335,-42.82501 l 1.1173,-5.475 88.5998,0 c 48.7299,0 88.5997,0.034 88.5996,0.075 -2e-4,0.041 -4.2613,21.27 -9.4692,47.17501 -5.2079,25.905 -12.3703,61.545 -15.9165,79.2 -16.3538,81.4199 -18.1925,90.5726 -45.3825,225.89991 -7.2603,36.135 -18.3388,91.2825 -24.6191,122.55 -6.2802,31.2675 -13.0131,64.7475 -14.9619,74.4 l -3.5432,17.55 -88.5537,0.075 c -52.1684,0.044 -88.5537,-0.035 -88.5537,-0.1938 0,-0.1482 3.5827,-18.2721 7.9615,-40.2755 4.3788,-22.0034 12.7438,-64.0362 18.5889,-93.4062 15.3683,-77.2216 16.9496,-85.2073 16.9496,-85.5987 0,-0.2694 -15.0355,-0.3348 -63.6596,-0.277 l -63.6595,0.076 -9.5249,47.85 c -5.2388,26.3175 -15.0845,75.7613 -21.8796,109.875 l -12.3546,62.025 -88.6109,0 c -48.736,0 -88.6109,-0.039 -88.6109,-0.087 0,-0.048 1.8299,-9.1939 4.0665,-20.325 2.2365,-11.131 7.3599,-36.6408 11.3852,-56.6883 4.0254,-20.0475 10.5581,-52.5825 14.5173,-72.3 8.4213,-41.9395 32.9404,-164.03423 46.0655,-229.38641 5.041,-25.1001 9.1655,-45.8563 9.1655,-46.125 0,-0.45 -5.8497,-0.4885 -74.25,-0.4885 -40.8375,0 -74.25,0.037 -74.25,0.083 0,0.046 -1.4243,7.167 -3.165,15.825 -4.5356,22.5593 -26.1625,130.23704 -39.5554,196.94181 -4.0417,20.13 -13.9789,69.6075 -22.0827,109.95 -8.1038,40.3425 -16.0487,79.8975 -17.6553,87.9 l -2.921,14.55 -88.5603,0.075 c -70.7517,0.06 -88.5602,0 -88.56,-0.3 2e-4,-0.2065 0.6828,-3.7505 1.5169,-7.8755 1.4327,-7.0856 6.0166,-29.9044 23.2018,-115.5 4.0416,-20.13 13.8961,-69.2025 21.8988,-109.05 8.0028,-39.84743 19.9577,-99.37411 26.5664,-132.28151 6.6087,-32.9073 12.0158,-59.9411 12.0158,-60.075 0,-0.1339 -90.9804,-0.2434 -202.1787,-0.2434 l -202.1788,0 -0.3179,1.575 c -1.917,9.4966 -15.0246,75.9172 -15.0246,76.1347 0,0.1866 45.5353,0.2903 127.5,0.2903 70.125,0 127.4999,0.1012 127.4998,0.225 -1e-4,0.2036 -17.2967,86.22931 -23.1088,114.93321 -1.3151,6.4946 -2.391,11.9283 -2.391,12.075 0,0.1552 -53.3007,0.2667 -127.4823,0.2667 -81.664,0 -127.5467,0.1042 -127.6614,0.2898 -0.098,0.1594 -1.3843,6.3356 -2.8574,13.725 -5.9227,29.7092 -12.5989,63.4763 -12.5989,63.7232 0,0.149 55.0237,0.262 127.5,0.262 74.4117,0 127.5,0.1113 127.5,0.2674 0,0.268 -27.7957,139.6888 -28.1021,140.9576 l -0.1629,0.675 -216.1175,0 c -118.8646,0 -216.1175,-0.04 -216.1175,-0.09 z m 3172.20003,-0.1532 c 0,-0.1336 1.56,-7.9973 3.4671,-17.475 4.2747,-21.2482 28.3674,-141.1738 37.4835,-186.5821 3.6936,-18.3975 12.9264,-64.36495 20.5176,-102.14995 7.5912,-37.78496 19.6197,-97.65746 26.73,-133.04996 7.1103,-35.3925 15.6294,-77.7825 18.9318,-94.20001 3.3021,-16.4175 6.1455,-30.6263 6.3189,-31.575 l 0.3153,-1.725 28.3179,0 c 23.721,0 28.3179,0.067 28.3179,0.4093 0,0.2251 -7.3653,36.7089 -16.3671,81.07501 -14.6055,71.9843 -22.7658,112.209 -26.2053,129.1738 l -1.137,5.6081 4.0797,-3.8531 c 7.2456,-6.8432 12.9963,-11.4627 19.9797,-16.0496 16.803,-11.0368 36.7131,-18.3528 58.35,-21.441 8.5899,-1.2261 13.5159,-1.5725 24.6,-1.73 12.0186,-0.1708 17.4012,0.1576 25.7538,1.5709 41.3517,6.997 71.6766,34.8585 81.943496,75.2866 2.6379,10.3882 3.6042,18.07767 3.8187,30.39304 0.3243,18.61073 -0.6513,26.00563 -8.5767,65.00687 -2.481296,12.21 -6.534896,32.19 -9.008396,44.4 -2.4735,12.21 -8.427,41.5725 -13.23,65.25 -4.803,23.6775 -9.8784,48.72 -11.2785,55.65 -1.3998,6.93 -4.5315,22.3875 -6.9588,34.35 l -4.4136,21.75 -28.275,0.076 c -24.2508,0.066 -28.275,0.016 -28.275,-0.3491 0,-0.2341 10.8033,-54.3361 24.0075,-120.2266 13.2039,-65.8904 24.4668,-122.5683 25.0287,-125.9508 4.1421,-24.94487 3.7392,-41.41467 -1.3797,-56.36351 -5.1342,-14.9942 -15.3384,-26.5696 -29.3565,-33.3013 -21.081,-10.1233 -49.38,-9.8342 -76.35,0.7801 -19.158,7.5398 -35.3454,20.0563 -48.0249,37.13473 -9.9903,13.45574 -17.9604,30.97742 -22.9257,50.4 -0.8016,3.13498 -4.5792,21.42748 -8.3946,40.64998 -3.8157,19.2225 -10.5804,53.31 -15.0324,75.75 -4.4523,22.44 -9.7722,49.2375 -11.8221,59.55 -2.0499,10.3125 -5.961,30.0225 -8.6919,43.8 -2.7306,13.7775 -5.1078,25.7587 -5.2827,26.625 l -0.3183,1.575 -28.3287,0 c -15.5808,0 -28.3287,-0.1093 -28.3287,-0.2429 z m -1633.18673,-6.8821 c 0.7674,-3.7537 2.9346,-14.4245 4.816,-23.7129 l 3.4207,-16.8879 128.7411,-145.5621 128.7411,-145.56201 -96.5661,-0.075 c -71.5136,-0.056 -96.5661,-0.1634 -96.5661,-0.4143 0,-0.1864 1.0868,-5.8899 2.4152,-12.6746 3.7766,-19.2886 7.1841,-36.9137 7.1845,-37.1607 10e-5,-0.1237 59.2653,-0.225 131.7003,-0.225 125.2304,0 131.6998,0.026 131.6951,0.525 0,0.2888 -2.1457,11.015 -4.7623,23.8361 l -4.7573,23.3111 -1.266,1.4389 c -0.6963,0.7914 -58.7296,66.20809 -128.9628,145.37041 -70.2332,79.1623 -127.7417,144.0635 -127.7967,144.225 -0.065,0.1909 35.7023,0.2935 102.3807,0.2935 l 102.4807,0 -0.1655,0.675 c -0.1809,0.7372 -2.1198,10.6979 -6.6568,34.1986 l -2.9391,15.2237 -137.266,0 -137.266,0 1.3953,-6.825 z m 778.5846,6.15 c 0.09,-0.3712 4.3605,-21.8025 9.4909,-47.625 5.1304,-25.8225 11.68,-58.7625 14.5547,-73.2 2.8747,-14.4375 7.9366,-39.885 11.2486,-56.55 3.312,-16.665 8.0387,-40.425 10.5039,-52.8 2.4652,-12.375 10.5023,-52.80745 17.8603,-89.84991 7.3581,-37.0425 13.4471,-67.5863 13.5312,-67.875 0.1442,-0.4952 1.7388,-0.525 28.0327,-0.525 15.3339,0 27.8798,0.1039 27.8798,0.2308 0,0.127 -1.9561,10.0059 -4.3468,21.9532 -2.3908,11.9473 -4.3037,21.7655 -4.251,21.8181 0.053,0.053 1.2941,-1.355 2.7588,-3.1281 7.8603,-9.5162 19.4704,-19.3407 30.889,-26.1388 23.2578,-13.8464 49.457,-20.1964 79.2,-19.1957 26.1834,0.8808 47.8201,8.6674 66.11089,23.7917 3.0831,2.5493 10.7113,10.0521 12.1814,11.981 l 0.8857,1.1622 -0.783,0.6378 c -0.4306,0.3508 -10.7251,9.5478 -22.8768,20.4378 -12.15159,10.89 -22.19929,19.8 -22.32809,19.8 -0.1288,0 -1.2459,-1.215 -2.4824,-2.7 -7.0454,-8.4611 -14.3194,-14.3502 -22.7577,-18.4248 -15.2941,-7.385 -33.8199,-8.5288 -53.8926,-3.3273 -10.9197,2.8297 -21.0398,7.4407 -31.3074,14.2645 -25.5542,16.98331 -44.6739,44.57558 -53.7183,77.52253 -1.449,5.27848 -1.9584,7.74708 -10.9284,52.96498 -3.895,19.635 -10.6466,53.655 -15.0035,75.6 -4.3569,21.945 -11.4442,57.6525 -15.7496,79.35 -4.3053,21.6975 -7.8983,39.6863 -7.9843,39.975 -0.1475,0.4952 -1.7665,0.525 -28.5186,0.525 l -28.3623,0 z m 323.60209,0.3481 c 0,-0.1798 3.0463,-15.4685 6.7696,-33.975 6.7385,-33.4933 12.1069,-60.1914 22.3294,-111.0481 2.9517,-14.685 10.0396,-49.92 15.7509,-78.3 10.4006,-51.68155 16.7021,-83.02606 27.4875,-136.72491 l 5.7694,-28.725 27.84664,0 c 22.0771,0 27.8467,0.078 27.8469,0.375 2e-4,0.2062 -1.8849,9.825 -4.1891,21.375 -2.3042,11.55 -8.3861,42.1275 -13.5154,67.94996 -16.2726,81.92075 -28.76654,144.78885 -42.12104,211.94995 -2.5592,12.87 -7.5158,37.8113 -11.0147,55.425 l -6.3617,32.025 -28.2992,0 c -20.2187,0 -28.2992,-0.093 -28.2992,-0.3269 z m -602.99999,-495.99501 c 0,-0.232 3.1725,-16.0757 7.05,-35.20811 3.8775,-19.1324 7.05,-34.8725 7.05,-34.9781 0,-0.1055 12.7666,-0.1918 28.3702,-0.1918 26.8776,0 28.3622,0.028 28.2172,0.525 -0.084,0.2887 -3.1397,15.5775 -6.7901,33.975 -3.6505,18.39751 -6.7744,34.09121 -6.9421,34.87501 l -0.3049,1.425 -28.3252,0 c -24.1406,0 -28.3251,-0.062 -28.3251,-0.422 z m 151.083,-0.103 c 0.1522,-0.6298 14.217,-70.06871 14.217,-70.19041 0,-0.047 12.7379,-0.085 28.3064,-0.085 l 28.3065,0 -1.8952,9.525 c -1.0423,5.2388 -4.0623,20.46 -6.711,33.825 -2.6487,13.36501 -4.9583,25.00881 -5.1325,25.87501 l -0.3167,1.575 -28.4507,0 c -26.9442,0 -28.4439,-0.028 -28.3238,-0.525 z m 551.21703,0.1659 c 0,-0.1974 1.6806,-8.6687 3.7346,-18.825 2.0541,-10.15621 5.0931,-25.21591 6.7534,-33.46591 1.6603,-8.25 3.1618,-15.7088 3.3367,-16.575 l 0.3178,-1.575 28.3613,0 28.3612,0 -0.1649,0.675 c -0.091,0.3712 -3.2169,16.065 -6.9472,34.875 -3.7304,18.81001 -6.8524,34.43621 -6.9379,34.72501 -0.1466,0.4952 -1.7637,0.525 -28.4852,0.525 -21.7914,0 -28.3298,-0.083 -28.3298,-0.3591 z"
       style="fill:#000000" />
  </g>
</svg>
